<svg xmlns="http://www.w3.org/2000/svg" width="256" height="256" viewBox="0 0 256 256" version="1.1">
	<path d="M 123 87 C 121.900 88.100, 121 89.793, 121 90.763 C 121 91.732, 119.987 92.970, 118.750 93.513 C 114.113 95.547, 117.116 96.500, 128.167 96.500 C 136.030 96.500, 139.453 96.141, 139.738 95.287 C 139.960 94.620, 138.985 93.783, 137.571 93.428 C 135.943 93.020, 135 92.089, 135 90.892 C 135 88.040, 131.388 85, 128 85 C 126.333 85, 124.111 85.889, 123 87 M 125.200 89.200 C 122.827 91.573, 123.878 93, 128 93 C 130.615 93, 132 92.550, 132 91.700 C 132 89.913, 129.932 88, 128 88 C 127.120 88, 125.860 88.540, 125.200 89.200 M 88.678 99.655 C 88.305 100.028, 88 111.707, 88 125.608 C 88 144.738, 88.304 151.074, 89.250 151.674 C 91.032 152.802, 164.119 152.953, 166.267 151.833 C 167.897 150.983, 168.013 148.924, 167.767 125.206 L 167.500 99.500 128.428 99.239 C 106.939 99.095, 89.051 99.282, 88.678 99.655 M 131 112 C 131 113.209, 132.160 113.319, 142.750 113.111 C 147.287 113.021, 151 113.289, 151 113.706 C 151 114.123, 146.622 118.859, 141.270 124.230 L 131.541 133.997 123.998 126.498 L 116.456 119 108.031 127.469 C 103.397 132.127, 99.932 136.266, 100.332 136.665 C 100.732 137.065, 104.408 134.065, 108.501 129.999 L 115.943 122.607 123.365 129.803 C 127.447 133.762, 131.165 137, 131.627 137 C 132.089 137, 137.312 132.170, 143.234 126.267 L 154 115.534 154 125.767 C 154 131.922, 154.398 136, 155 136 C 155.613 136, 156 131.167, 156 123.500 L 156 111 143.500 111 C 135.833 111, 131 111.387, 131 112 M 85 156.500 C 85 157.746, 86.944 158, 96.500 158 C 102.825 158, 108 158.283, 108 158.628 C 108 158.974, 106.656 161.605, 105.014 164.476 C 102.295 169.227, 102.040 171, 104.072 171 C 104.478 171, 106.522 168.075, 108.613 164.500 L 112.416 158 128.458 158.008 L 144.500 158.017 147.948 164.508 C 149.845 168.079, 151.982 171, 152.698 171 C 154.660 171, 154.303 169.507, 150.905 163.485 L 147.809 158 159.405 158 C 169.045 158, 171 157.747, 171 156.500 C 171 155.190, 165.556 155, 128 155 C 90.444 155, 85 155.190, 85 156.500" stroke="none" fill="#ffffff" fill-rule="evenodd"/>
</svg>