<svg xmlns="http://www.w3.org/2000/svg" width="256" height="256" viewBox="0 0 256 256" version="1.1">
	<path d="M 160.614 69.463 C 156.976 74.176, 154 78.250, 154 78.516 C 154 78.782, 155.800 79, 158 79 C 162.537 79, 162.683 79.412, 160.598 86.341 C 159.827 88.903, 159.547 91, 159.977 91 C 160.855 91, 171.766 76.772, 172.646 74.479 C 173.091 73.322, 172.321 73, 169.107 73 C 166.848 73, 165.005 72.888, 165.012 72.750 C 165.018 72.612, 165.677 70.046, 166.475 67.047 C 167.273 64.047, 167.769 61.436, 167.577 61.244 C 167.385 61.052, 164.252 64.751, 160.614 69.463 M 94.573 80.199 C 93.262 82.071, 93.033 87.334, 93.029 115.665 C 93.026 134.424, 93.441 150.029, 93.980 151.447 C 95.076 154.330, 96.338 154.272, 108.500 150.780 C 125.568 145.879, 144.273 132.932, 154.589 118.879 C 157.847 114.441, 158 113.845, 158 105.616 L 158 97 150.073 97 C 142.700 97, 142 96.816, 140.073 94.365 C 138.433 92.281, 138 90.296, 138 84.865 L 138 78 117.057 78 C 96.616 78, 96.076 78.053, 94.573 80.199 M 141 85.300 C 141 88.867, 141.521 92.121, 142.200 92.800 C 143.412 94.012, 156 94.545, 156 93.384 C 156 92.737, 142.037 79, 141.380 79 C 141.171 79, 141 81.835, 141 85.300 M 171.072 92.462 L 159.645 99.874 163.728 101.508 L 167.811 103.142 164.407 109.165 C 159.444 117.944, 157.387 120.677, 149.551 128.892 C 133.530 145.688, 108.934 157, 88.435 157 C 84.895 157, 82 157.441, 82 157.981 C 82 161.316, 106.245 160.383, 119.500 156.538 C 142.871 149.759, 163.468 134.445, 175.717 114.739 L 179.298 108.978 182.775 111.030 C 184.687 112.158, 186.413 112.920, 186.610 112.724 C 186.986 112.348, 185.140 91.125, 184.395 87.250 C 184.157 86.013, 183.633 85.011, 183.231 85.025 C 182.829 85.038, 177.358 88.385, 171.072 92.462 M 74.571 91.571 C 73.200 92.943, 73 97.827, 73 130 C 73 171.633, 72.691 170, 80.571 170 L 85 170 85 176.500 C 85 182.064, 85.256 183, 86.779 183 C 87.757 183, 91.457 180.075, 95 176.500 L 101.442 170 115.787 170 C 123.763 170, 130.990 169.540, 132.066 168.965 C 133.677 168.103, 134 166.832, 134 161.358 C 134 155.487, 133.813 154.864, 132.250 155.518 C 118.123 161.427, 96.220 164.420, 83.500 162.181 C 80.095 161.581, 79.453 161.069, 79.184 158.739 C 78.932 156.557, 79.402 155.798, 81.499 155 C 82.946 154.450, 85.623 154, 87.449 154 L 90.767 154 90.907 122 L 91.048 90 83.595 90 C 78.154 90, 75.719 90.424, 74.571 91.571 M 109 90.765 C 106.607 91.507, 105 94.145, 105 97.331 C 105 98.954, 104.213 100.891, 103.250 101.640 C 101.583 102.935, 101.583 103.065, 103.250 104.360 C 104.256 105.142, 105 107.055, 105 108.860 C 105 111.894, 107.875 116, 110 116 C 111.479 116, 111.214 114.071, 109.500 112.357 C 107.032 109.889, 107.172 95.264, 109.682 93.313 C 111.541 91.869, 111.074 90.122, 109 90.765 M 116 91.393 C 116 92.159, 116.675 93.045, 117.500 93.362 C 118.418 93.714, 119 95.230, 119 97.269 C 119 99.101, 119.489 101.089, 120.087 101.687 C 120.870 102.470, 120.870 102.962, 120.087 103.446 C 119.489 103.816, 119 105.906, 119 108.090 C 119 110.699, 118.485 112.260, 117.500 112.638 C 115.420 113.437, 115.618 115, 117.800 115 C 120.538 115, 122 112.967, 122 109.160 C 122 107.069, 122.686 105.187, 123.750 104.360 C 125.417 103.065, 125.417 102.935, 123.750 101.640 C 122.662 100.794, 122 98.924, 122 96.696 C 122 94.127, 121.371 92.673, 119.777 91.557 C 117.030 89.633, 116 89.588, 116 91.393 M 130.702 102.632 C 130.316 103.018, 130 103.725, 130 104.203 C 130 105.420, 148.954 104.728, 149.255 103.500 C 149.535 102.356, 131.807 101.527, 130.702 102.632 M 130.252 110.250 C 130.547 111.131, 133.426 111.500, 140.003 111.500 C 146.581 111.500, 149.458 111.131, 149.751 110.250 C 150.065 109.305, 147.688 109, 140 109 C 132.310 109, 129.935 109.305, 130.252 110.250 M 130.710 115.623 C 128.948 117.386, 130.466 118, 136.583 118 C 141.403 118, 143.056 117.665, 142.754 116.750 C 142.306 115.391, 131.914 114.419, 130.710 115.623 M 106.196 127.298 C 104.438 129.111, 103 131.045, 103 131.595 C 103 132.144, 104.748 134.301, 106.885 136.388 C 111.511 140.905, 113.856 139.547, 109.422 134.919 L 106.626 132 109.313 129.195 C 110.791 127.653, 112 125.853, 112 125.195 C 112 123.023, 109.440 123.951, 106.196 127.298 M 117.595 124.847 C 117.307 125.313, 118.409 126.975, 120.043 128.541 L 123.015 131.389 119.810 134.696 C 117.482 137.098, 116.905 138.305, 117.702 139.102 C 118.499 139.899, 119.951 139.049, 123.003 135.997 L 127.205 131.795 123.400 127.897 C 119.492 123.896, 118.504 123.376, 117.595 124.847 M 172.080 127.403 C 171.376 128.252, 171.018 131.199, 171.198 134.666 C 171.460 139.733, 171.763 140.500, 173.500 140.500 C 175.249 140.500, 175.537 139.735, 175.794 134.409 C 176.002 130.094, 175.676 127.976, 174.676 127.146 C 173.584 126.240, 172.998 126.298, 172.080 127.403 M 163.250 135.718 C 162.426 136.014, 162 138.356, 162 142.583 C 162 148.333, 162.208 149, 164 149 C 165.793 149, 166 148.333, 166 142.559 C 166 136.062, 165.533 134.899, 163.250 135.718 M 152.428 146.431 C 151.569 149.853, 152.592 152.225, 154.747 151.810 C 157.204 151.337, 157.238 144.669, 154.786 144.197 C 153.639 143.976, 152.858 144.716, 152.428 146.431 M 171.446 146.087 C 170.229 148.057, 172.645 149.126, 177.601 148.810 C 181.304 148.575, 182.562 148.078, 182.814 146.750 C 183.098 145.255, 182.344 145, 177.632 145 C 174.599 145, 171.816 145.489, 171.446 146.087 M 143.193 157.250 C 143.408 160.224, 143.950 161.500, 145 161.500 C 146.050 161.500, 146.592 160.224, 146.807 157.250 C 147.079 153.493, 146.870 153, 145 153 C 143.130 153, 142.921 153.493, 143.193 157.250 M 153.036 156.456 C 150.735 159.229, 152.980 160, 163.359 160 C 173.954 160, 177.076 159.001, 174.854 156.324 C 173.225 154.361, 154.682 154.474, 153.036 156.456 M 179.336 156.567 C 178.502 158.739, 180.618 160.782, 182.133 159.267 C 183.413 157.987, 182.620 155, 181 155 C 180.415 155, 179.667 155.705, 179.336 156.567 M 153.036 164.456 C 151.344 166.495, 152.602 168, 156 168 C 157.585 168, 159.172 167.530, 159.527 166.956 C 160.408 165.531, 158.152 163, 156 163 C 155.035 163, 153.701 163.655, 153.036 164.456 M 163.880 164.644 C 161.806 167.144, 164.156 168, 173.090 168 C 180.395 168, 182.177 167.702, 182.677 166.399 C 183.015 165.518, 182.664 164.407, 181.896 163.928 C 179.735 162.580, 165.111 163.162, 163.880 164.644 M 143.190 166.750 C 143.376 167.713, 144.190 168.500, 145 168.500 C 145.810 168.500, 146.624 167.713, 146.810 166.750 C 147.046 165.522, 146.506 165, 145 165 C 143.494 165, 142.954 165.522, 143.190 166.750 M 144.096 171.941 C 142.585 172.875, 143.281 176, 145 176 C 146.464 176, 147.466 173.066, 146.374 171.974 C 145.873 171.473, 144.877 171.458, 144.096 171.941 M 153.571 172.325 C 150.276 174.734, 152.693 176, 160.590 176 C 166.519 176, 168.190 175.669, 168.677 174.399 C 169.015 173.519, 168.744 172.460, 168.075 172.047 C 165.868 170.682, 155.546 170.880, 153.571 172.325 M 173.190 173.750 C 173.376 174.713, 174.190 175.500, 175 175.500 C 175.810 175.500, 176.624 174.713, 176.810 173.750 C 177.046 172.522, 176.506 172, 175 172 C 173.494 172, 172.954 172.522, 173.190 173.750 M 153.285 180.533 C 150.771 182.372, 152.727 184, 157.452 184 C 164.305 184, 164.533 179.598, 157.688 179.436 C 156.142 179.400, 154.160 179.893, 153.285 180.533" stroke="none" fill="#ffffff" fill-rule="evenodd"/>
</svg>