<svg xmlns="http://www.w3.org/2000/svg" width="256" height="256" viewBox="0 0 256 256" version="1.1">
	<path d="M 124.160 87.608 C 118.437 90.460, 112.560 97.174, 111.479 102.095 C 110.966 104.430, 110.419 104.950, 108.961 104.488 C 103.838 102.862, 94.910 108.392, 93.511 114.059 C 93.025 116.027, 91.904 116.878, 88.651 117.748 C 83.042 119.249, 79.156 122.446, 76.896 127.421 C 73.183 135.597, 75.543 145.260, 82.561 150.616 L 86.339 153.500 109.920 153.799 L 133.500 154.099 133.310 147.799 C 133.205 144.335, 133.093 139.488, 133.060 137.029 L 133 132.558 126.723 138.779 C 123.271 142.200, 119.896 145, 119.223 145 C 116.467 145, 118.438 142.020, 126.501 133.999 L 135.001 125.543 143.986 134.486 C 149.958 140.430, 152.636 143.764, 151.974 144.426 C 151.311 145.089, 148.633 143.098, 143.988 138.488 L 137 131.554 137 151.777 C 137 168.664, 137.236 172, 138.433 172 C 140.337 172, 141.222 168.910, 140.958 163.187 C 140.498 153.219, 139.537 154.003, 152.250 153.978 C 165.014 153.953, 169.255 152.611, 174.699 146.872 C 180.671 140.578, 182.427 132.537, 179.778 123.616 C 178.062 117.839, 170.777 110.758, 164.839 109.095 C 160.523 107.887, 160.106 107.479, 159.100 103.484 C 156.516 93.221, 145.833 85, 135.082 85 C 130.955 85, 127.956 85.716, 124.160 87.608" stroke="none" fill="#ffffff" fill-rule="evenodd"/>
</svg>