<svg xmlns="http://www.w3.org/2000/svg" width="256" height="256" viewBox="0 0 256 256" version="1.1">
	<path d="M 114.856 88.251 C 78.878 100.869, 75.781 148.942, 109.863 165.774 C 117.197 169.397, 117.714 169.500, 128.477 169.500 C 138.999 169.500, 139.882 169.335, 146.303 166.173 C 178.634 150.250, 178.119 105.118, 145.432 89.822 C 136.184 85.494, 124.438 84.890, 114.856 88.251 M 120.792 101.354 C 96.591 108.117, 93.042 141.373, 115.318 152.661 C 125.869 158.008, 137.683 156.552, 146.462 148.824 C 152.367 143.626, 155.139 138.139, 155.759 130.417 C 157.299 111.234, 139.217 96.205, 120.792 101.354 M 117.500 105.383 C 93.305 116.821, 101.277 153.014, 128.046 153.266 C 144.893 153.425, 157.186 137.470, 152.537 121.479 C 148.166 106.444, 131.475 98.777, 117.500 105.383 M 122.458 115.846 C 112.356 120.520, 111.511 133.459, 120.898 139.730 C 129.327 145.361, 140.811 139.594, 141.699 129.283 C 142.625 118.533, 132.274 111.304, 122.458 115.846 M 122.110 118.396 C 116.885 121.291, 115.224 130.472, 119.045 135.331 C 122.816 140.124, 131.395 140.667, 136.100 136.409 C 140.936 132.033, 140.523 123.130, 135.293 119.016 C 132.314 116.672, 125.774 116.365, 122.110 118.396" stroke="none" fill="#ffffff" fill-rule="evenodd"/>
</svg>