<svg xmlns="http://www.w3.org/2000/svg" width="256" height="256" viewBox="0 0 256 256" version="1.1">
	<path d="M 105.306 93.417 C 104.479 94.895, 102.892 95.155, 95.078 95.094 C 80.661 94.982, 81.929 91.507, 82.237 130.292 L 82.500 163.500 128 163.500 L 173.500 163.500 173.763 130.292 C 174.008 99.423, 173.903 97.021, 172.263 96.185 C 171.294 95.690, 166.301 95.257, 161.169 95.222 C 153.329 95.170, 151.622 94.867, 150.490 93.330 C 149.219 91.604, 149.104 91.599, 148.464 93.250 C 147.591 95.502, 141.753 95.612, 139.925 93.410 C 138.797 92.051, 138.452 92.026, 137.553 93.236 C 135.954 95.388, 132.167 96.024, 130.554 94.411 C 128.707 92.564, 126 92.602, 126 94.475 C 126 96.391, 120.009 95.350, 118.382 93.151 C 117.411 91.839, 117.118 91.912, 116.158 93.706 C 114.777 96.285, 109.559 96.147, 107.609 93.480 C 106.354 91.764, 106.233 91.760, 105.306 93.417 M 85.667 99.667 C 85.300 100.033, 85 101.383, 85 102.667 L 85 105 128.066 105 L 171.133 105 170.816 102.250 L 170.500 99.500 160.750 99.214 C 152.524 98.972, 151 99.168, 151 100.464 C 151 101.309, 150.325 102, 149.500 102 C 148.675 102, 148 101.325, 148 100.500 C 148 99.417, 146.889 99, 144 99 C 141.111 99, 140 99.417, 140 100.500 C 140 101.325, 139.325 102, 138.500 102 C 137.675 102, 137 101.325, 137 100.500 C 137 98.342, 131.081 98.536, 129.360 100.750 C 128.065 102.417, 127.935 102.417, 126.640 100.750 C 124.957 98.586, 119.439 98.413, 118.638 100.500 C 118.322 101.325, 117.599 102, 117.031 102 C 116.464 102, 116 101.325, 116 100.500 C 116 99.417, 114.889 99, 112 99 C 109.111 99, 108 99.417, 108 100.500 C 108 101.325, 107.325 102, 106.500 102 C 105.675 102, 105 101.325, 105 100.500 C 105 99.274, 103.296 99, 95.667 99 C 90.533 99, 86.033 99.300, 85.667 99.667 M 99.639 114.694 C 99.288 115.046, 99 116.608, 99 118.167 C 99 120.648, 98.627 121, 96 121 C 94.350 121, 93 121.450, 93 122 C 93 122.550, 95.025 123, 97.500 123 L 102 123 102 119.059 C 102 115.261, 100.972 113.361, 99.639 114.694 M 114 118 C 114 120.667, 113.667 121, 111 121 C 109.350 121, 108 121.450, 108 122 C 108 122.550, 110.025 123, 112.500 123 L 117 123 117 119 C 117 116.111, 116.583 115, 115.500 115 C 114.500 115, 114 116, 114 118 M 129.816 117.750 C 129.568 119.910, 128.910 120.568, 126.750 120.816 C 122.520 121.303, 123.492 123, 128 123 L 132 123 132 119 C 132 114.492, 130.303 113.520, 129.816 117.750 M 145 118 C 145 120.667, 144.667 121, 142 121 C 140.350 121, 139 121.450, 139 122 C 139 122.550, 141.025 123, 143.500 123 L 148 123 148 119 C 148 116.111, 147.583 115, 146.500 115 C 145.500 115, 145 116, 145 118 M 160 118 C 160 120.667, 159.667 121, 157 121 C 155.350 121, 154 121.450, 154 122 C 154 122.550, 156.025 123, 158.500 123 L 163 123 163 119 C 163 116.111, 162.583 115, 161.500 115 C 160.500 115, 160 116, 160 118 M 99 132.917 C 99 135.676, 98.685 136, 96 136 C 93.951 136, 93 136.494, 93 137.557 C 93 138.771, 93.938 139.047, 97.250 138.807 C 101.474 138.502, 101.500 138.476, 101.500 134.583 C 101.500 132.339, 100.966 130.489, 100.250 130.250 C 99.430 129.977, 99 130.894, 99 132.917 M 114.667 130.667 C 114.300 131.033, 114 132.353, 114 133.600 C 114 135.276, 113.340 135.950, 111.469 136.184 C 107.312 136.703, 108.178 138.477, 112.750 138.807 L 117 139.115 117 134.557 C 117 130.307, 116.260 129.073, 114.667 130.667 M 130 133 C 130 135.667, 129.667 136, 127 136 C 125 136, 124 136.500, 124 137.500 C 124 138.583, 125.111 139, 128 139 L 132 139 132 134.500 C 132 132.025, 131.550 130, 131 130 C 130.450 130, 130 131.350, 130 133 M 145 132.917 C 145 135.676, 144.685 136, 142 136 C 139.951 136, 139 136.494, 139 137.557 C 139 138.771, 139.938 139.047, 143.250 138.807 C 147.474 138.502, 147.500 138.476, 147.500 134.583 C 147.500 132.339, 146.966 130.489, 146.250 130.250 C 145.430 129.977, 145 130.894, 145 132.917 M 160.667 130.667 C 160.300 131.033, 160 132.353, 160 133.600 C 160 135.276, 159.340 135.950, 157.469 136.184 C 153.312 136.703, 154.178 138.477, 158.750 138.807 L 163 139.115 163 134.557 C 163 130.307, 162.260 129.073, 160.667 130.667 M 145.639 145.694 C 145.288 146.046, 145 147.608, 145 149.167 C 145 151.648, 144.627 152, 142 152 C 140.350 152, 139 152.450, 139 153 C 139 153.550, 141.025 154, 143.500 154 L 148 154 148 150.059 C 148 146.261, 146.972 144.361, 145.639 145.694 M 99 149 C 99 151.667, 98.667 152, 96 152 C 94.350 152, 93 152.450, 93 153 C 93 153.550, 95.025 154, 97.500 154 L 102 154 102 150 C 102 147.111, 101.583 146, 100.500 146 C 99.500 146, 99 147, 99 149 M 114 149 C 114 151.667, 113.667 152, 111 152 C 109.350 152, 108 152.450, 108 153 C 108 153.550, 110.025 154, 112.500 154 L 117 154 117 150 C 117 147.111, 116.583 146, 115.500 146 C 114.500 146, 114 147, 114 149 M 129.816 148.750 C 129.568 150.910, 128.910 151.568, 126.750 151.816 C 122.520 152.303, 123.492 154, 128 154 L 132 154 132 150 C 132 145.492, 130.303 144.520, 129.816 148.750 M 160 149 C 160 151.667, 159.667 152, 157 152 C 155.350 152, 154 152.450, 154 153 C 154 153.550, 156.025 154, 158.500 154 L 163 154 163 150 C 163 147.111, 162.583 146, 161.500 146 C 160.500 146, 160 147, 160 149" stroke="none" fill="#ffffff" fill-rule="evenodd"/>
</svg>