<svg xmlns="http://www.w3.org/2000/svg" width="256" height="256" viewBox="0 0 256 256" version="1.1">
	<path d="M 94.460 79.244 C 94.192 79.941, 94.092 96.259, 94.237 115.506 L 94.500 150.500 117.499 150.769 L 140.497 151.039 148.718 159.217 C 153.239 163.715, 157.113 167.193, 157.327 166.947 C 157.541 166.701, 158.605 163.125, 159.692 159 L 161.668 151.500 166.584 151 L 171.500 150.500 171.500 114.500 L 171.500 78.500 133.223 78.238 C 103.048 78.032, 94.843 78.244, 94.460 79.244 M 85.456 85.254 C 85.191 85.944, 85.093 102.932, 85.237 123.004 L 85.500 159.500 90.654 159.799 L 95.807 160.098 97.904 167.867 C 99.057 172.140, 100 176.272, 100 177.048 C 100 177.825, 104.171 174.307, 109.269 169.230 L 118.538 160 131.456 160 L 144.374 160 141.500 157 L 138.626 154 114.813 154 L 91 154 91 119 L 91 84 88.469 84 C 87.076 84, 85.721 84.564, 85.456 85.254 M 108 93.500 C 108 94.793, 111.444 95, 133 95 C 154.556 95, 158 94.793, 158 93.500 C 158 92.207, 154.556 92, 133 92 C 111.444 92, 108 92.207, 108 93.500 M 108.633 101.701 C 106.673 103.660, 110.287 104, 133.083 104 C 152.705 104, 158.076 103.728, 157.750 102.750 C 157.435 101.804, 151.481 101.447, 133.300 101.284 C 120.081 101.165, 108.981 101.353, 108.633 101.701 M 108 112 C 108 112.550, 108.787 113.020, 109.750 113.044 C 113.762 113.146, 147.912 113.189, 152.750 113.098 C 155.637 113.044, 158 112.550, 158 112 C 158 111.360, 149 111, 133 111 C 117 111, 108 111.360, 108 112 M 108.250 121.250 C 108.561 122.184, 112.922 122.500, 125.500 122.500 C 138.078 122.500, 142.439 122.184, 142.750 121.250 C 143.073 120.281, 139.189 120, 125.500 120 C 111.811 120, 107.927 120.281, 108.250 121.250" stroke="none" fill="#ffffff" fill-rule="evenodd"/>
</svg>