<svg xmlns="http://www.w3.org/2000/svg" width="256" height="256" viewBox="0 0 256 256" version="1.1">
	<path d="M 90.250 91.250 C 90.858 93.073, 166.142 93.073, 166.750 91.250 C 167.079 90.264, 158.989 90, 128.500 90 C 98.011 90, 89.921 90.264, 90.250 91.250 M 94 110 L 94 125 128.500 125 L 163 125 163 110 L 163 95 128.500 95 L 94 95 94 110 M 120 109.500 C 120 111.971, 120.100 112, 128.500 112 C 135.389 112, 137 111.716, 137 110.500 C 137 109.300, 135.500 109, 129.500 109 C 125.167 109, 122 108.578, 122 108 C 122 107.450, 121.550 107, 121 107 C 120.450 107, 120 108.125, 120 109.500 M 94 143 L 94 159 128.500 159 L 163 159 163 143 L 163 127 128.500 127 L 94 127 94 143 M 135 140.267 C 135 141.180, 132.897 141.530, 127.500 141.517 C 122.157 141.505, 120 141.860, 120 142.750 C 120 143.652, 122.367 144, 128.500 144 C 136.900 144, 137 143.971, 137 141.500 C 137 140.125, 136.550 139, 136 139 C 135.450 139, 135 139.570, 135 140.267 M 100 164.542 C 100 167.071, 100.039 167.083, 107.750 166.792 C 114.922 166.522, 115.524 166.332, 115.820 164.250 C 116.128 162.076, 115.866 162, 108.070 162 C 100.093 162, 100 162.029, 100 164.542 M 141 164.500 C 141 166.958, 141.133 167, 149 167 C 156.867 167, 157 166.958, 157 164.500 C 157 162.042, 156.867 162, 149 162 C 141.133 162, 141 162.042, 141 164.500" stroke="none" fill="#ffffff" fill-rule="evenodd"/>
</svg>