<svg xmlns="http://www.w3.org/2000/svg" width="256" height="256" viewBox="0 0 256 256" version="1.1">
	<path d="M 100.680 90.653 C 100.306 91.027, 100 103.408, 100 118.167 L 100 145 125.700 145 C 142.565 145, 151.062 145.338, 150.415 145.985 C 149.826 146.574, 137.593 147.076, 119.965 147.235 L 90.500 147.500 90.500 156.500 L 90.500 165.500 123 165.500 L 155.500 165.500 155.763 130.250 C 155.929 107.899, 156.387 95, 157.013 95 C 157.569 95, 158 98.081, 158 102.060 L 158 109.121 161.750 108.810 L 165.500 108.500 165.500 99.500 L 165.500 90.500 133.430 90.236 C 115.792 90.091, 101.054 90.279, 100.680 90.653 M 106 105 C 106 105.637, 114.186 106, 128.559 106 C 143.344 106, 150.905 105.655, 150.500 105 C 150.118 104.382, 141.490 104, 127.941 104 C 113.980 104, 106 104.364, 106 105 M 105.500 115 C 105.095 115.656, 112.843 116, 128 116 C 143.157 116, 150.905 115.656, 150.500 115 C 150.118 114.383, 141.509 114, 128 114 C 114.491 114, 105.882 114.383, 105.500 115 M 105.554 124.912 C 105.232 125.434, 105.317 126.078, 105.745 126.342 C 107.304 127.306, 149.498 126.503, 150 125.500 C 150.663 124.174, 106.373 123.588, 105.554 124.912 M 105.994 134.835 C 105.441 135.020, 105.242 135.582, 105.553 136.085 C 106.340 137.360, 149.711 137.277, 150.500 136 C 150.872 135.397, 149.406 134.961, 146.809 134.903 C 133.101 134.593, 106.851 134.550, 105.994 134.835" stroke="none" fill="#ffffff" fill-rule="evenodd"/>
</svg>