<svg xmlns="http://www.w3.org/2000/svg" width="256" height="256" viewBox="0 0 256 256" version="1.1">
	<path d="M 110 115.500 C 120.164 125.675, 128.888 134, 129.387 134 C 129.886 134, 138.665 125.682, 148.897 115.515 L 167.500 97.030 129.510 97.015 L 91.520 97 110 115.500 M 88 124.310 L 88 151.112 102.750 139.881 C 110.862 133.704, 117.705 128.486, 117.956 128.285 C 118.207 128.085, 111.570 121.078, 103.206 112.714 L 88 97.508 88 124.310 M 153.772 113.750 L 139.069 128.500 154.035 139.785 L 169 151.069 169 125.035 C 169 110.716, 168.882 99, 168.737 99 C 168.593 99, 161.859 105.638, 153.772 113.750 M 104 142.065 C 90.783 152.318, 88.500 154.488, 88.500 156.795 L 88.500 159.500 128.500 159.500 L 168.500 159.500 168.500 156.790 C 168.500 154.473, 166.247 152.342, 153 142.125 L 137.500 130.170 133.958 133.585 C 132.010 135.463, 129.735 137, 128.904 137 C 128.073 137, 125.866 135.425, 124 133.500 C 122.134 131.575, 120.358 130.009, 120.054 130.020 C 119.749 130.031, 112.525 135.451, 104 142.065" stroke="none" fill="#ffffff" fill-rule="evenodd"/>
</svg>