<svg xmlns="http://www.w3.org/2000/svg" width="256" height="256" viewBox="0 0 256 256" version="1.1">
	<path d="M 104.750 87.314 C 92.787 90.148, 83 92.723, 83 93.037 C 83 93.350, 93.246 96.668, 105.769 100.409 L 128.537 107.211 150.519 100.494 C 162.608 96.799, 172.837 93.467, 173.250 93.089 C 173.937 92.458, 129.782 81.807, 127.500 82.053 C 126.950 82.112, 116.713 84.480, 104.750 87.314 M 157.500 101.544 C 146.500 105.094, 135.813 108.467, 133.750 109.038 L 130 110.077 130 142.646 C 130 168.276, 130.266 175.117, 131.250 174.760 C 131.938 174.511, 142.738 171.232, 155.250 167.473 L 178 160.640 178 127.820 C 178 109.769, 177.887 95.020, 177.750 95.044 C 177.613 95.068, 168.500 97.993, 157.500 101.544 M 79 128.293 L 79 160.585 101.250 167.351 C 113.488 171.072, 124.287 174.345, 125.250 174.625 C 126.891 175.103, 127 173.111, 127 142.567 C 127 124.655, 126.828 110, 126.619 110 C 126.409 110, 116.006 106.850, 103.500 103 C 90.994 99.150, 80.366 96, 79.881 96 C 79.391 96, 79 110.332, 79 128.293" stroke="none" fill="#ffffff" fill-rule="evenodd"/>
</svg>