<svg xmlns="http://www.w3.org/2000/svg" width="256" height="256" viewBox="0 0 256 256" version="1.1">
	<path d="M 83.250 88.662 C 82.280 89.054, 82 97.964, 82 128.476 C 82 163.399, 82.177 167.854, 83.582 168.393 C 85.648 169.186, 170.352 169.186, 172.418 168.393 C 173.823 167.854, 174 163.401, 174 128.500 C 174 93.599, 173.823 89.146, 172.418 88.607 C 170.529 87.882, 85.052 87.935, 83.250 88.662 M 86.629 91.832 C 85.195 92.109, 84.955 93.119, 85.203 97.832 L 85.500 103.500 128.250 103.633 L 171 103.767 171 97.883 C 171 92.146, 170.932 91.999, 168.250 91.941 C 155.260 91.663, 87.970 91.574, 86.629 91.832 M 89.200 95.200 C 86.738 97.662, 89.162 101.643, 92.373 100.410 C 94.459 99.610, 94.491 95.403, 92.418 94.607 C 90.404 93.834, 90.602 93.798, 89.200 95.200 M 98.011 95.487 C 96.532 97.269, 97.317 99.801, 99.622 100.685 C 101.990 101.594, 104.238 98.313, 102.926 95.862 C 101.725 93.618, 99.691 93.463, 98.011 95.487 M 107.618 95.525 C 106.394 96.749, 106.254 97.605, 107.037 99.069 C 108.291 101.412, 110.298 101.550, 112.070 99.416 C 112.999 98.296, 113.087 97.362, 112.371 96.226 C 110.905 93.902, 109.455 93.688, 107.618 95.525 M 90 136.500 L 90 161 106.500 161 L 123 161 123 136.500 L 123 112 106.500 112 L 90 112 90 136.500 M 128.688 112.645 C 128.310 113.024, 128 118.418, 128 124.631 C 128 134.778, 128.197 136.035, 129.934 136.965 C 131.036 137.554, 138.734 138, 147.812 138 C 160.220 138, 164.011 137.691, 164.911 136.607 C 165.677 135.685, 165.972 131.374, 165.784 123.857 L 165.500 112.500 147.438 112.228 C 137.505 112.079, 129.067 112.266, 128.688 112.645 M 93.479 115.034 C 92.999 115.811, 92.685 141.832, 92.975 156.778 C 92.994 157.766, 96.120 157.993, 106.750 157.778 L 120.500 157.500 120.706 137.050 C 120.842 123.594, 120.544 116.155, 119.834 115.300 C 118.484 113.674, 94.469 113.431, 93.479 115.034 M 131.427 115.329 C 131.147 116.060, 131.048 120.673, 131.209 125.579 L 131.500 134.500 147.250 134.775 L 163 135.051 163.132 132.775 C 163.588 124.951, 163.402 117.254, 162.722 115.750 C 162.018 114.196, 160.247 114, 146.933 114 C 135.383 114, 131.820 114.305, 131.427 115.329 M 128.688 143.645 C 127.345 144.988, 127.930 158.697, 129.382 159.902 C 130.333 160.691, 136.170 160.963, 148.132 160.774 L 165.500 160.500 165.500 152 L 165.500 143.500 147.438 143.228 C 137.505 143.079, 129.067 143.266, 128.688 143.645 M 131.692 145.642 C 131.311 146.022, 131 148.958, 131 152.167 L 131 158 147.048 158 L 163.095 158 162.798 151.750 L 162.500 145.500 147.442 145.225 C 139.160 145.074, 132.072 145.261, 131.692 145.642" stroke="none" fill="#ffffff" fill-rule="evenodd"/>
</svg>