<svg xmlns="http://www.w3.org/2000/svg" width="256" height="256" viewBox="0 0 256 256" version="1.1">
	<path d="M 115.909 89.896 C 100.698 94.763, 89.596 108.502, 88.291 124.074 L 87.710 131 100.105 131.007 L 112.500 131.013 118.862 149.507 L 125.224 168 128.862 167.976 C 137.932 167.915, 147.567 163.993, 154.944 157.360 C 171.260 142.691, 172.408 117.041, 157.462 101.063 C 146.618 89.470, 130.652 85.179, 115.909 89.896 M 127.571 96.571 C 125.712 98.431, 125.501 103.101, 127.200 104.800 C 129.154 106.754, 134.778 106.283, 135.965 104.066 C 139.208 98.006, 132.302 91.841, 127.571 96.571 M 129.040 98.452 C 127.157 100.721, 128.184 103.500, 130.905 103.500 C 134.059 103.500, 135.846 100.724, 134.070 98.584 C 132.432 96.610, 130.608 96.562, 129.040 98.452 M 111.200 99.200 C 109.501 100.899, 109.712 105.569, 111.571 107.429 C 116.298 112.156, 123.205 105.989, 119.965 99.934 C 118.778 97.717, 113.154 97.246, 111.200 99.200 M 112.309 101.636 C 110.836 105.475, 116.149 108.296, 118.333 104.834 C 119.096 103.625, 119.023 102.733, 118.070 101.584 C 116.359 99.523, 113.109 99.552, 112.309 101.636 M 141.333 105.615 C 139.798 107.957, 139.773 108.506, 141.091 110.865 C 143.115 114.489, 148.175 115.016, 150.404 111.834 C 152.501 108.839, 152.417 107.417, 150 105 C 147.171 102.171, 143.415 102.437, 141.333 105.615 M 144.163 105.878 C 143.427 106.345, 142.977 107.800, 143.163 109.113 C 143.416 110.902, 144.126 111.500, 146 111.500 C 147.874 111.500, 148.584 110.902, 148.837 109.113 C 149.126 107.072, 147.707 105.031, 146 105.031 C 145.725 105.031, 144.898 105.412, 144.163 105.878 M 98.997 111.503 C 97.168 113.707, 97.477 118.144, 99.566 119.672 C 105.197 123.790, 112.314 116.457, 107.429 111.571 C 105.434 109.577, 100.628 109.538, 98.997 111.503 M 100.309 113.636 C 98.836 117.475, 104.149 120.296, 106.333 116.834 C 107.096 115.625, 107.023 114.733, 106.070 113.584 C 104.359 111.523, 101.109 111.552, 100.309 113.636 M 149.557 121.223 C 147.507 124.148, 147.590 126.319, 149.829 128.345 C 153.348 131.530, 160 129.273, 160 124.894 C 160 122, 156.946 119, 154 119 C 152.151 119, 150.554 119.799, 149.557 121.223 M 151.573 122.569 C 149.596 124.546, 151.140 128, 154 128 C 156.860 128, 158.404 124.546, 156.427 122.569 C 155.563 121.706, 154.471 121, 154 121 C 153.529 121, 152.437 121.706, 151.573 122.569 M 146.750 137.080 C 144.258 138.532, 144.384 144.600, 146.934 145.965 C 150.028 147.620, 153.825 147.195, 154.965 145.066 C 158.204 139.013, 152.669 133.633, 146.750 137.080 M 148.046 139.444 C 145.345 142.699, 149.815 146.614, 152.811 143.618 C 154.084 142.344, 154.215 141.563, 153.376 140.231 C 151.916 137.913, 149.601 137.571, 148.046 139.444" stroke="none" fill="#ffffff" fill-rule="evenodd"/>
</svg>