<svg xmlns="http://www.w3.org/2000/svg" width="256" height="256" viewBox="0 0 256 256" version="1.1">
	<path d="M 88.313 86.750 C 88.550 87.162, 92.658 94.353, 97.441 102.728 L 106.137 117.956 108.569 116.363 C 109.906 115.487, 111 114.644, 111 114.490 C 111 114.337, 107.364 107.864, 102.921 100.105 C 94.965 86.215, 94.788 86, 91.362 86 C 89.448 86, 88.076 86.338, 88.313 86.750 M 98.250 86.684 C 104.253 97.575, 113.426 112.991, 113.888 112.965 C 114.224 112.945, 115.503 112.372, 116.728 111.691 C 118.946 110.459, 118.924 110.396, 112.118 98.477 C 105.446 86.791, 105.189 86.492, 101.540 86.184 C 99.483 86.010, 98.002 86.235, 98.250 86.684 M 147.170 92.750 C 145.015 96.463, 141.856 101.993, 140.149 105.040 L 137.047 110.579 139.985 111.688 C 142.166 112.511, 143.152 112.501, 143.809 111.649 C 144.757 110.420, 153.610 94.650, 156.382 89.250 L 158.051 86 154.570 86 C 151.325 86, 150.822 86.459, 147.170 92.750 M 155.401 96.250 C 152.259 101.888, 148.746 108.173, 147.594 110.219 L 145.500 113.937 147.618 116.058 L 149.735 118.179 158.495 102.840 C 163.313 94.403, 167.450 87.162, 167.687 86.750 C 167.924 86.338, 166.542 86, 164.615 86 C 161.211 86, 160.952 86.288, 155.401 96.250 M 118.275 113.594 C 112.152 115.849, 104.701 122.973, 101.930 129.221 C 95.783 143.081, 101.197 158.661, 115 166.835 C 118.925 169.160, 120.586 169.500, 128 169.500 C 135.542 169.500, 137.100 169.167, 141.824 166.551 C 150.792 161.583, 156.041 153.305, 156.750 143.008 C 157.559 131.263, 151.330 120.285, 140.791 114.883 C 135.220 112.028, 124.233 111.399, 118.275 113.594 M 124 129.500 C 124 130.325, 124.675 131, 125.500 131 C 126.728 131, 127 132.722, 127 140.500 C 127 148.278, 126.728 150, 125.500 150 C 124.675 150, 124 150.450, 124 151 C 124 151.550, 125.800 152, 128 152 C 132.002 152, 133.337 150.727, 130.484 149.632 C 128.357 148.816, 128.473 131, 130.605 131 C 131.372 131, 132 130.325, 132 129.500 C 132 128.417, 130.889 128, 128 128 C 125.111 128, 124 128.417, 124 129.500" stroke="none" fill="#ffffff" fill-rule="evenodd"/>
</svg>