<svg xmlns="http://www.w3.org/2000/svg" width="256" height="256" viewBox="0 0 256 256" version="1.1">
	<path d="M 82.200 89.200 C 80.438 90.962, 80.486 144.904, 82.250 145.448 C 82.938 145.660, 84.730 146.102, 86.233 146.431 L 88.966 147.029 89.233 121.765 L 89.500 96.500 121.750 96.236 L 154 95.972 154 93.186 C 154 91.654, 153.460 89.860, 152.800 89.200 C 151.081 87.481, 83.919 87.481, 82.200 89.200 M 92 127.441 C 92 143.084, 92.338 156.088, 92.750 156.340 C 93.162 156.593, 94.850 156.957, 96.500 157.149 L 99.500 157.500 100 132.500 L 100.500 107.500 132.750 107.236 L 165 106.972 165 104.186 C 165 102.654, 164.460 100.860, 163.800 100.200 C 162.912 99.312, 153.422 99, 127.300 99 L 92 99 92 127.441 M 103 137.929 C 103 161.985, 103.218 166.075, 104.571 167.429 C 105.936 168.794, 110.476 169, 139.137 169 C 159.969 169, 172.845 168.618, 174.066 167.965 C 175.905 166.980, 176 165.597, 176 139.665 C 176 119.792, 175.675 112.075, 174.800 111.200 C 173.912 110.312, 164.422 110, 138.300 110 L 103 110 103 137.929" stroke="none" fill="#ffffff" fill-rule="evenodd"/>
</svg>