<svg xmlns="http://www.w3.org/2000/svg" width="256" height="256" viewBox="0 0 256 256" version="1.1">
	<path d="M 101.200 91.672 C 91.159 96.621, 85.297 113.125, 89.006 126.007 C 89.930 129.215, 89.788 129.663, 87.256 131.496 C 79.149 137.366, 73.249 147.184, 72.300 156.383 L 71.720 162 80.360 162 L 89 162 89.021 159.250 C 89.033 157.738, 90.134 153.406, 91.468 149.625 L 93.894 142.751 90.841 138.952 C 86.174 133.144, 89.143 130.366, 93.927 136.064 L 96.500 139.127 100.400 135.118 L 104.300 131.109 104.400 121.304 C 104.487 112.725, 104.847 110.793, 107.280 105.839 C 108.809 102.726, 111.846 98.565, 114.030 96.592 C 116.213 94.619, 118 92.823, 118 92.600 C 118 91.701, 111.473 90.001, 108.101 90.023 C 106.120 90.035, 103.015 90.777, 101.200 91.672 M 141.500 91.178 C 140.400 91.792, 139.300 92.466, 139.056 92.675 C 138.811 92.884, 140.245 94.402, 142.242 96.048 C 149.202 101.785, 153.742 115.542, 152.101 125.922 C 151.325 130.833, 151.367 130.944, 155.523 135.022 L 159.730 139.151 162.710 135.536 C 165.357 132.324, 165.836 132.098, 167.005 133.506 C 168.122 134.851, 167.871 135.729, 165.350 139.306 L 162.378 143.522 164.240 147.790 C 165.264 150.138, 166.366 154.295, 166.690 157.029 L 167.279 162 175.639 162 L 184 162 184 158.682 C 184 149.964, 176.681 136.438, 169.594 132.058 C 166.298 130.021, 166.213 129.814, 167.201 126.234 C 168.797 120.454, 167.714 107.207, 165.260 102.500 C 162.740 97.666, 157.520 92.507, 153.685 91.061 C 150.058 89.694, 144.054 89.751, 141.500 91.178 M 119.408 97.472 C 111.534 102.192, 106.126 114.849, 107.451 125.457 C 108.742 135.790, 115.433 145.668, 122.783 148.094 C 129.941 150.456, 138.218 147.273, 142.976 140.330 C 144.782 137.694, 145.562 137.222, 146.636 138.113 C 148.553 139.703, 148.355 140.846, 145.521 144.561 C 135.640 157.516, 117.050 155.743, 108.350 141.016 C 107.370 139.357, 106.026 138, 105.362 138 C 103.564 138, 97.419 145.577, 94.940 150.850 C 93.745 153.393, 92.532 158.067, 92.245 161.236 L 91.722 167 128 167 L 164.278 167 163.741 161.082 C 163.035 153.294, 158.179 144.187, 151.721 138.537 L 146.808 134.240 148 128.501 C 152.464 106.997, 135.048 88.097, 119.408 97.472" stroke="none" fill="#ffffff" fill-rule="evenodd"/>
</svg>