<svg xmlns="http://www.w3.org/2000/svg" width="256" height="256" viewBox="0 0 256 256" version="1.1">
	<path d="M 161.285 80.413 C 159.708 81.741, 153.744 88.266, 148.033 94.913 C 142.322 101.561, 137.379 107, 137.050 107 C 136.720 107, 133.097 103.625, 129 99.500 C 124.554 95.024, 120.723 92, 119.498 92 C 118.286 92, 114.601 94.868, 110.491 99.009 L 103.535 106.019 126.502 129.002 L 149.468 151.985 156.734 144.767 C 160.730 140.798, 164 136.921, 164 136.153 C 164 135.384, 160.417 131.084, 156.037 126.597 L 148.073 118.439 162.470 106.163 C 177.589 93.271, 178.909 91.414, 177.503 85.012 C 176.024 78.280, 166.897 75.692, 161.285 80.413 M 165.242 82.034 C 157.427 85.174, 162.375 97.089, 170.250 94.095 C 175.081 92.258, 175.232 84.338, 170.477 82.171 C 169.063 81.527, 167.815 81.029, 167.703 81.063 C 167.591 81.098, 166.484 81.535, 165.242 82.034 M 88.733 120.766 C 77.741 131.792, 76.391 134.248, 79.571 137.429 C 81.429 139.286, 85.115 139.485, 86.783 137.817 C 88.576 136.024, 89.352 137.551, 88.253 140.704 C 86.286 146.347, 90.170 150.247, 95.389 147.868 C 98.691 146.364, 99.704 147.316, 98.063 150.382 C 95.322 155.503, 99.960 160.057, 105.193 157.383 C 108.115 155.891, 110.170 157.230, 108.113 159.287 C 106.479 160.921, 106.757 164.614, 108.658 166.515 C 110.266 168.124, 112.459 168.109, 116.400 166.464 C 118.099 165.755, 118.216 165.978, 117.510 168.586 C 115.973 174.262, 117.695 178, 121.845 178 C 122.649 178, 128.424 172.952, 134.677 166.782 L 146.048 155.564 123.282 132.782 C 110.761 120.252, 100.280 110, 99.991 110 C 99.702 110, 94.636 114.845, 88.733 120.766" stroke="none" fill="#ffffff" fill-rule="evenodd"/>
</svg>