<svg xmlns="http://www.w3.org/2000/svg" width="256" height="256" viewBox="0 0 256 256" version="1.1">
	<path d="M 86.378 88.437 C 80.260 91.100, 80 92.214, 80 115.788 C 80 128.514, 80.416 137.908, 81.030 139.055 C 83.179 143.072, 87.107 144, 101.950 144 L 116 144 116 133.458 L 116 122.916 108.377 123.208 L 100.753 123.500 99.003 128 C 97.423 132.063, 96.901 132.530, 93.627 132.810 C 91.632 132.981, 90 132.757, 90 132.311 C 90 130.923, 100.225 100.555, 101.048 99.500 C 101.503 98.916, 104.641 98.708, 108.586 99 L 115.343 99.500 117.308 105.500 C 118.389 108.800, 119.398 111.648, 119.550 111.830 C 119.702 112.011, 120.888 111.465, 122.184 110.615 C 123.481 109.765, 127.008 108.942, 130.021 108.785 L 135.500 108.500 135.500 100.853 C 135.500 88.096, 133.226 86.994, 107 87.045 C 94.516 87.069, 88.605 87.468, 86.378 88.437 M 104.799 111.009 L 102.179 119 107.590 119 C 110.565 119, 113 118.637, 113 118.194 C 113 116.890, 108.799 104.568, 108.078 103.759 C 107.715 103.352, 106.240 106.614, 104.799 111.009 M 123.400 116.400 L 120 119.800 120 140.865 L 120 161.930 123.104 165.465 L 126.207 169 148.088 169 L 169.968 169 173.234 166.083 L 176.500 163.166 176.727 143.333 C 176.973 121.943, 176.393 118.241, 172.293 115.016 C 169.904 113.137, 168.272 113, 148.265 113 L 126.800 113 123.400 116.400 M 145.802 128.250 C 145.584 132.039, 145.083 133.537, 144 133.635 C 143.175 133.709, 139.688 133.821, 136.250 133.885 C 130.705 133.987, 130 134.226, 130 136 C 130 137.544, 130.667 138, 132.922 138 C 135.419 138, 136.020 138.546, 137.046 141.750 C 137.707 143.813, 139.341 146.964, 140.678 148.754 L 143.108 152.008 140.304 153.092 C 138.762 153.688, 136.013 154.424, 134.197 154.727 C 131.853 155.119, 131.054 155.698, 131.447 156.721 C 131.751 157.515, 132 159.063, 132 160.161 C 132 161.890, 132.438 162.066, 135.250 161.470 C 137.037 161.091, 140.681 159.750, 143.347 158.490 L 148.194 156.199 153.347 158.509 C 156.181 159.779, 159.910 161.108, 161.634 161.463 C 164.618 162.077, 164.788 161.942, 165.172 158.650 C 165.545 155.461, 165.340 155.153, 162.538 154.684 C 160.867 154.404, 158.278 153.703, 156.784 153.125 L 154.067 152.075 157.034 146.436 C 158.665 143.335, 160 140.168, 160 139.398 C 160 138.467, 161.169 138, 163.500 138 C 166.308 138, 167 137.613, 167 136.042 C 167 134.292, 166.178 134.053, 159.250 133.792 L 151.500 133.500 151.198 128.250 C 150.922 123.462, 150.685 123, 148.500 123 C 146.315 123, 146.078 123.462, 145.802 128.250 M 143 139.852 C 143 141.984, 147.037 148.353, 148.444 148.441 C 149.495 148.507, 152.424 143.725, 153.462 140.250 C 154.103 138.106, 153.874 138, 148.567 138 C 143.815 138, 143 138.271, 143 139.852" stroke="none" fill="#ffffff" fill-rule="evenodd"/>
</svg>