<svg xmlns="http://www.w3.org/2000/svg" width="256" height="256" viewBox="0 0 256 256" version="1.1">
	<path d="M 82.450 88.269 C 82.178 88.979, 82.078 98.321, 82.228 109.029 L 82.500 128.500 128 128.500 L 173.500 128.500 173.500 108 L 173.500 87.500 128.223 87.240 C 91.992 87.032, 82.846 87.237, 82.450 88.269 M 86 107.500 L 86 124 91.250 124.121 C 108.150 124.508, 167.702 124.586, 168.750 124.221 C 169.681 123.897, 170 119.609, 170 107.393 L 170 91 128 91 L 86 91 86 107.500 M 101 107.287 C 101 113.858, 101.197 114.589, 103 114.725 C 104.143 114.811, 105 114.259, 105 113.438 C 105 112.647, 104.550 112, 104 112 C 103.450 112, 103 109.975, 103 107.500 C 103 105.025, 103.450 103, 104 103 C 104.550 103, 105 102.325, 105 101.500 C 105 100.667, 104.111 100, 103 100 C 101.183 100, 101 100.667, 101 107.287 M 151.530 100.952 C 151.169 101.536, 151.577 102.284, 152.437 102.614 C 154.205 103.293, 154.727 112, 153 112 C 152.450 112, 152 112.675, 152 113.500 C 152 115.176, 152.863 115.374, 154.802 114.144 C 156.853 112.842, 156.013 100.618, 153.843 100.205 C 152.932 100.031, 151.891 100.367, 151.530 100.952 M 116.565 102.187 C 116.333 102.909, 116.224 105.487, 116.322 107.915 C 116.528 113.019, 119 115.021, 119 110.083 C 119 108.388, 119.450 107, 120 107 C 120.550 107, 121 108.350, 121 110 C 121 111.650, 121.476 113, 122.057 113 C 122.683 113, 122.989 111.265, 122.807 108.750 C 122.567 105.420, 122.121 104.530, 120.750 104.639 C 119.787 104.715, 119 104.179, 119 103.448 C 119 101.588, 117.076 100.592, 116.565 102.187 M 142.667 103.750 C 142.419 104.162, 142.511 106.300, 142.871 108.500 C 143.385 111.632, 144.012 112.569, 145.763 112.820 C 148.389 113.195, 148.593 112.450, 146.453 110.310 C 145.096 108.954, 145.085 108.561, 146.359 107.131 C 147.585 105.755, 147.599 105.304, 146.449 104.250 C 144.911 102.841, 143.339 102.633, 142.667 103.750 M 108.957 105.551 C 107.782 106.968, 107.929 107.454, 110.049 109.157 L 112.500 111.125 110.132 110.458 C 108.389 109.967, 107.881 110.148, 108.210 111.145 C 108.871 113.150, 112.472 113.341, 114.038 111.454 C 115.220 110.030, 115.075 109.556, 112.951 107.893 C 111.183 106.509, 111.026 106.161, 112.386 106.646 C 113.746 107.131, 114.142 106.925, 113.804 105.909 C 113.119 103.853, 110.525 103.662, 108.957 105.551 M 126.257 105.250 C 123.640 108.560, 124.544 113, 127.835 113 C 131.738 113, 133.322 108.465, 130.429 105.571 C 128.531 103.673, 127.562 103.599, 126.257 105.250 M 133.917 104.667 C 133.871 104.850, 133.794 106.688, 133.745 108.750 C 133.673 111.861, 134.026 112.554, 135.817 112.818 C 137.738 113.101, 137.909 112.794, 137.360 110.050 C 136.845 107.475, 137.012 107.068, 138.371 107.589 C 139.531 108.034, 140 107.656, 140 106.274 C 140 104.784, 139.303 104.333, 137 104.333 C 135.350 104.333, 133.963 104.483, 133.917 104.667 M 127.667 106.667 C 126.629 107.704, 126.883 111, 128 111 C 128.550 111, 129 109.875, 129 108.500 C 129 105.882, 128.769 105.564, 127.667 106.667 M 82.446 135.279 C 82.176 135.983, 82.078 145.321, 82.228 156.029 L 82.500 175.500 128 175.500 L 173.500 175.500 173.770 154.750 L 174.041 134 128.489 134 C 92.410 134, 82.835 134.266, 82.446 135.279 M 86 154.500 C 86 166.941, 86.307 171.043, 87.250 171.173 C 87.938 171.268, 106.837 171.381, 129.250 171.423 L 170 171.500 170 154.750 L 170 138 128 138 L 86 138 86 154.500 M 101 154.500 C 101 161.333, 101.178 162, 103 162 C 104.100 162, 105 161.550, 105 161 C 105 160.450, 104.550 160, 104 160 C 102.568 160, 102.736 150.255, 104.177 149.774 C 105.718 149.261, 104.303 147, 102.441 147 C 101.314 147, 101 148.637, 101 154.500 M 151.496 148.007 C 151.153 148.561, 151.577 149.284, 152.437 149.614 C 154.694 150.480, 154.608 158.553, 152.333 159.426 C 151.120 159.891, 150.966 160.366, 151.766 161.166 C 152.371 161.771, 153.571 161.995, 154.433 161.664 C 156.706 160.792, 156.693 148.480, 154.418 147.607 C 152.342 146.810, 152.225 146.827, 151.496 148.007 M 129 150.500 C 129 151.333, 128.111 152, 127 152 C 125.900 152, 124.944 152.450, 124.875 153 C 124.806 153.550, 124.664 154.563, 124.559 155.250 C 124.136 158.016, 126.083 160.057, 128.800 159.695 C 131.311 159.360, 131.512 158.974, 131.672 154.167 C 131.802 150.286, 131.491 149, 130.422 149 C 129.640 149, 129 149.675, 129 150.500 M 110.250 152.099 C 105.724 153.781, 108.419 160.954, 113.027 159.491 C 115.323 158.763, 114.850 157.533, 112.266 157.513 C 109.577 157.491, 109.684 155.071, 112.419 154.031 C 113.838 153.491, 115 152.862, 115 152.632 C 115 151.632, 112.316 151.331, 110.250 152.099 M 117.690 152.154 C 115.732 153.249, 115.452 157.052, 117.200 158.800 C 119.119 160.719, 121.992 160.191, 122.914 157.750 C 124.416 153.773, 121.115 150.237, 117.690 152.154 M 134.724 152.134 C 131.140 154.140, 133.588 160.611, 137.637 159.831 C 140.180 159.342, 140.670 153.429, 138.273 152.146 C 137.098 151.517, 135.835 151.513, 134.724 152.134 M 143.250 151.651 C 141.520 152.365, 141.681 154.940, 143.500 155.638 C 144.325 155.955, 145 156.602, 145 157.076 C 145 157.549, 144.264 157.655, 143.364 157.309 C 142.238 156.877, 141.874 157.122, 142.197 158.091 C 142.455 158.866, 143.754 159.500, 145.083 159.500 C 148.429 159.500, 148.927 155.775, 145.797 154.168 L 143.500 152.989 145.868 153.600 C 147.593 154.044, 148.114 153.842, 147.785 152.855 C 147.295 151.381, 145.231 150.833, 143.250 151.651 M 119 154.441 C 119 155.298, 118.966 156.326, 118.925 156.725 C 118.884 157.124, 119.334 157.611, 119.925 157.808 C 121.282 158.261, 121.350 154.334, 120 153.500 C 119.450 153.160, 119 153.584, 119 154.441" stroke="none" fill="#ffffff" fill-rule="evenodd"/>
</svg>